HIERARCHY
ROOT hip
{
	OFFSET 0.000000 0.000000 0.000000 
	CHANNELS 6 Xposition Yposition Zposition Xrotation Zrotation Yrotation
	JOINT abdomen
	{
		OFFSET 0.000000 3.402643 0.000000 
		CHANNELS 3 Xrotation Zrotation Yrotation
		JOINT chest
		{
			OFFSET 0.000000 8.438565 -0.680529 
			CHANNELS 3 Xrotation Zrotation Yrotation
			JOINT neck
			{
				OFFSET 0.000000 10.207942 -0.272212 
				CHANNELS 3 Xrotation Zrotation Yrotation
				JOINT head
				{
					OFFSET 0.000000 3.130431 0.000000 
					CHANNELS 3 Xrotation Zrotation Yrotation
					End Site
					{
						OFFSET 0.000000 3.130435 0.000000 
					}
				}
			}
			JOINT lCollar
			{
				OFFSET 3.470700 6.669187 -0.816635 
				CHANNELS 3 Yrotation Zrotation Xrotation
				JOINT lShldr
				{
					OFFSET 3.198488 0.000000 0.000000 
					CHANNELS 3 Zrotation Yrotation Xrotation
					JOINT lForeArm
					{
						OFFSET 10.139888 0.000000 0.000000 
						CHANNELS 3 Yrotation Zrotation Xrotation
						JOINT lHand
						{
							OFFSET 8.370511 0.000000 0.000000 
							CHANNELS 3 Zrotation Yrotation Xrotation
							End Site
							{
								OFFSET 4.083176 0.000000 0.000000 
							}
						}
					}
				}
			}
			JOINT rCollar
			{
				OFFSET -3.470700 6.669187 -0.816635 
				CHANNELS 3 Yrotation Zrotation Xrotation
				JOINT rShldr
				{
					OFFSET -3.198488 0.000000 0.000000 
					CHANNELS 3 Zrotation Yrotation Xrotation
					JOINT rForeArm
					{
						OFFSET -10.139888 0.000000 0.000000 
						CHANNELS 3 Yrotation Zrotation Xrotation
						JOINT rHand
						{
							OFFSET -8.370511 0.000000 0.000000 
							CHANNELS 3 Zrotation Yrotation Xrotation
							End Site
							{
								OFFSET -4.083176 0.000000 0.000000 
							}
						}
					}
				}
			}
		}
	}
	JOINT lThigh
	{
		OFFSET 5.308129 -1.633274 1.361059 
		CHANNELS 3 Xrotation Zrotation Yrotation
		JOINT lShin
		{
			OFFSET -2.041588 -20.007561 0.000000 
			CHANNELS 3 Xrotation Zrotation Yrotation
			JOINT lFoot
			{
				OFFSET 0.000000 -19.190928 -1.224953 
				CHANNELS 3 Xrotation Yrotation Zrotation
				End Site
				{
					OFFSET 0.000000 -2.449906 4.627600 
				}
			}
		}
	}
	JOINT rThigh
	{
		OFFSET -5.308129 -1.633274 1.361059 
		CHANNELS 3 Xrotation Zrotation Yrotation
		JOINT rShin
		{
			OFFSET 2.041588 -20.007561 0.000000 
			CHANNELS 3 Xrotation Zrotation Yrotation
			JOINT rFoot
			{
				OFFSET 0.000000 -19.190928 -1.224953 
				CHANNELS 3 Xrotation Yrotation Zrotation
				End Site
				{
					OFFSET 0.000000 -2.449906 4.627600 
				}
			}
		}
	}
}
MOTION
Frames: 15
Frame Time: 0.033333
16.232450 39.165802 -5.349519 0.351563 -0.146484 -146.582016 30.660566 -9.698592 -4.665598 -0.146484 9.638673 19.816090 -8.603516 0.000000 0.000000 -8.583984 -14.472657 32.958984 2.000000 -2.000000 0.000000 -103.173828 -40.966797 -34.479061 -8.004666 -1.794700 0.021853 1.756760 -3.283567 0.058713 -2.000000 2.000000 0.000000 103.935547 35.224609 30.093523 41.590488 1.730504 -0.050710 -1.786088 3.264010 0.057537 -23.004660 23.317234 -0.148564 40.394283 -3.133367 -2.816606 -5.649710 4.445936 -0.005275 -9.135893 -10.316327 -3.277017 48.277164 2.646159 3.152839 -28.646494 -10.349090 0.035776 
15.463793 39.688553 -3.971290 -0.019531 0.888672 -145.517578 30.660566 -9.698592 -4.665598 -1.152343 10.556643 19.132650 -8.603516 0.000000 0.000000 -8.828126 -13.749999 32.519531 2.000000 -2.000000 0.000000 -105.205078 -39.267578 -29.752274 -12.975857 -1.795855 0.002362 1.756760 -3.283567 0.058713 -2.000000 2.000000 0.000000 101.738281 33.691406 27.944870 45.380035 1.731658 -0.070201 -1.786088 3.264010 0.057537 -21.531361 23.689354 2.289608 36.786491 -3.292459 -2.633707 -6.060898 0.225764 0.003636 -9.374381 -11.112310 -2.600770 44.706638 2.851535 3.026598 -26.554714 -11.768452 0.012779 
14.578800 40.282719 -2.524165 -0.673828 1.757813 -145.068359 30.660566 -9.698592 -4.665598 -2.314454 11.054688 18.984377 -8.603516 0.000000 0.000000 -9.091795 -13.251953 31.960655 2.000000 -2.000000 0.000000 -106.289063 -38.378906 -25.259972 -17.321562 -1.795856 0.002362 1.756760 -3.283567 0.058713 -2.000000 2.000000 0.000000 100.966797 33.300781 26.162107 47.714024 1.731658 -0.070201 -1.786088 3.264010 0.057537 -20.483932 23.167803 6.568903 32.956528 -3.453990 -2.410454 -5.844178 -3.565365 0.022142 -9.686875 -12.215994 -1.183276 40.496792 3.059947 2.798352 -23.876078 -13.304712 0.003532 
13.605320 40.917591 -1.064920 -1.318359 2.402344 -145.390625 30.660566 -9.698592 -4.665598 -3.466797 11.210938 19.414063 -8.603516 0.000000 0.000000 -9.208985 -13.046875 31.503910 2.000000 -2.000000 0.000000 -106.542969 -38.320313 -22.261913 -20.446823 -1.786685 -0.007962 1.756760 -3.283567 0.058713 -2.000000 2.000000 0.000000 101.445313 33.769531 25.205078 48.641754 1.731659 -0.070201 -1.786088 3.264010 0.057537 -19.420631 21.928112 11.921136 29.375914 -3.589614 -2.173714 -5.184393 -6.622483 -0.003982 -9.889208 -13.413891 0.919348 35.926262 3.255720 2.569507 -21.017836 -14.797127 0.018385 
12.605604 41.551979 0.325662 -1.767578 2.851563 -146.357422 30.660566 -9.698592 -4.665598 -4.589843 11.289063 20.304647 -8.603516 0.000000 0.000000 -9.072268 -13.056640 31.279303 2.000000 -2.000000 0.000000 -106.074219 -39.140625 -22.096004 -21.589643 -1.787262 -0.017708 1.756760 -3.283567 0.058713 -2.000000 2.000000 0.000000 102.871094 34.804688 25.087889 48.280426 1.731659 -0.070201 -1.786088 3.264010 0.057537 -18.005608 20.317272 18.065765 26.160175 -3.705844 -1.983049 -4.358253 -9.399406 -0.002927 -9.818509 -14.426512 2.911710 31.681395 3.431408 2.331090 -18.357807 -15.524994 -0.005512 
11.663656 42.135616 1.579015 -1.894531 3.164063 -147.558060 30.660566 -9.698592 -4.665598 -5.703126 11.464844 21.396484 -8.603516 0.000000 0.000000 -8.417970 -13.026848 31.034214 2.000000 -2.000000 0.000000 -104.951172 -40.869141 -25.211468 -20.183151 -1.786685 -0.007962 1.756760 -3.283567 0.058713 -2.000000 2.000000 0.000000 104.882813 36.035156 25.503792 46.698399 1.731658 -0.070201 -1.786088 3.264010 0.057537 -16.188950 18.741249 24.821224 23.350260 -3.803781 -1.815848 -3.629420 -12.528592 0.025902 -9.325453 -15.087007 3.647586 28.671743 3.530391 2.175652 -16.142614 -14.620797 0.016364 
10.851783 42.619263 2.673194 -1.708984 3.369141 -148.505859 30.660566 -9.698592 -4.665598 -6.933593 11.748048 22.355505 -8.603516 0.000000 0.000000 -7.246094 -12.666015 30.517582 2.000000 -2.000000 0.000000 -103.183594 -43.300781 -30.416855 -16.344995 -1.795856 0.002362 1.756760 -3.283567 0.058713 -2.000000 2.000000 0.000000 107.216797 37.255859 25.923882 43.944489 1.731658 -0.070201 -1.786088 3.264010 0.057537 -14.266633 17.394897 31.810442 20.832085 -3.868644 -1.631981 -2.986405 -16.482101 0.017958 -8.368064 -15.222929 2.448104 27.623085 3.588646 2.074210 -14.355789 -11.531706 0.018569 
10.205035 42.965542 3.640387 -1.367187 3.447266 -148.857101 30.660566 -9.698592 -4.665598 -8.310547 12.011719 22.998047 -8.603516 0.000000 0.000000 -5.683594 -11.904296 29.492189 2.000000 -2.000000 0.000000 -100.957031 -45.878906 -35.498047 -11.198513 -1.795856 0.002362 1.756760 -3.283567 0.058713 -2.000000 2.000000 0.000000 109.599609 38.398434 25.917971 40.359997 1.740253 -0.050134 -1.786088 3.264010 0.057537 -12.597795 16.182167 38.186134 18.650146 -3.930452 -1.480323 -2.492970 -20.859907 0.025195 -7.020163 -14.839757 -0.525337 28.796928 3.588333 2.091692 -13.122344 -6.527925 0.009295 
9.721847 43.155876 4.541654 -1.064453 3.349610 -148.700592 30.660566 -9.698592 -4.665598 -9.746094 12.021485 23.361410 -8.603516 0.000000 0.000000 -4.062500 -10.947265 27.976662 2.000000 -2.000000 0.000000 -98.808594 -47.919922 -38.535156 -6.578885 -1.794700 0.021853 1.756760 -3.283567 0.058713 -2.000000 2.000000 0.000000 111.748047 39.404297 25.435886 36.668587 1.740253 -0.050134 -1.786088 3.264010 0.057537 -11.562889 14.880038 42.937195 16.892296 -3.963318 -1.355168 -2.256155 -24.726799 -0.004331 -5.458775 -13.953729 -4.391626 31.562527 3.466744 2.263861 -12.449731 -0.220291 0.018545 
9.384422 43.191772 5.431894 -0.986328 3.037110 -148.310028 30.660566 -9.698592 -4.665598 -11.093750 11.572265 23.623047 -8.603516 0.000000 0.000000 -2.705078 -10.048828 26.248299 2.000000 -2.000000 0.000000 -97.402344 -48.779297 -39.177265 -4.137235 -1.794122 0.031598 1.756760 -3.283567 0.058713 -2.000000 2.000000 0.000000 113.291016 40.087894 24.850040 33.846291 1.759749 -0.048979 -1.786088 3.264010 0.057537 -11.270071 13.444598 45.421726 15.679071 -3.992023 -1.269367 -2.163763 -27.207163 0.019546 -3.778421 -12.601419 -7.916548 34.745995 3.329994 2.437870 -12.298073 6.918024 0.009567 
9.178934 43.089417 6.344322 -1.162109 2.490235 -147.978516 30.660566 -9.698592 -4.665598 -12.216798 10.595703 23.906250 -8.603516 0.000000 0.000000 -1.767578 -9.335938 24.695683 2.000000 -2.000000 0.000000 -97.041016 -48.300781 -38.271484 -4.283720 -1.794122 0.031598 1.756760 -3.283567 0.058713 -2.000000 2.000000 0.000000 113.955070 40.263672 24.609373 32.606056 1.759749 -0.048979 -1.786088 3.264010 0.057537 -11.660877 11.896780 45.785870 15.020293 -4.000592 -1.241521 -2.103051 -27.904236 0.013549 -2.011924 -10.818524 -10.404737 37.086624 3.239359 2.580944 -12.631529 14.266293 0.021095 
9.102724 42.874203 7.301925 -1.552734 1.777344 -147.919922 30.660566 -9.698592 -4.665598 -13.076173 9.150391 24.218752 -8.603516 0.000000 0.000000 -1.162109 -8.691406 23.554688 2.000000 -2.000000 0.000000 -97.460938 -46.855465 -37.060543 -6.129666 -1.794700 0.021853 1.756760 -3.283567 0.058713 -2.000000 2.000000 0.000000 113.808594 39.853516 24.976961 32.977150 1.759749 -0.048979 -1.786088 3.264010 0.057537 -12.529334 10.302566 45.080658 14.836313 -4.010597 -1.209478 -1.796825 -27.237329 0.002984 -0.059823 -8.673561 -11.812022 37.648422 3.190233 2.616160 -13.203196 20.788502 0.031795 
9.159541 42.575203 8.335291 -2.109375 0.898438 -148.242188 30.660566 -9.698592 -4.665598 -13.632813 7.324219 24.531252 -8.603516 0.000000 0.000000 -0.761720 -7.998046 22.929688 2.000000 -2.000000 0.000000 -98.037109 -45.068359 -36.188553 -8.239285 -1.795278 0.012107 1.756760 -3.283567 0.058713 -2.000000 2.000000 0.000000 113.095703 38.955074 25.693359 34.383400 1.759749 -0.048979 -1.786088 3.264010 0.057537 -13.661911 8.738894 44.671478 14.901844 -4.028249 -1.235287 -1.238891 -26.307316 0.015888 1.962385 -6.366131 -12.284111 36.388577 3.249058 2.572269 -13.987649 24.897604 0.026206 
9.348953 42.223732 9.482055 -2.753906 -0.048828 -148.945328 30.660566 -9.698592 -4.665598 -13.935547 5.380860 24.873047 -8.603516 0.000000 0.000000 -0.507812 -7.324219 22.752661 2.000000 -2.000000 0.000000 -98.437500 -43.457031 -35.680542 -9.704373 -1.795856 0.002362 1.756760 -3.283567 0.058713 -2.000000 2.000000 0.000000 112.226563 37.832035 26.451305 35.994759 1.740253 -0.050134 -1.786088 3.264010 0.057537 -14.891511 7.387228 45.479305 15.006108 -4.015060 -1.251473 -0.626477 -26.266506 0.014457 3.667558 -4.135763 -12.061408 33.930439 3.341509 2.391909 -15.166170 25.257088 0.053805 
9.654846 41.855556 10.764310 -3.378906 -0.957031 -149.990387 30.660566 -9.698592 -4.665598 -13.974608 3.603516 25.215454 -8.603516 0.000000 0.000000 -0.371094 -6.816406 22.978518 2.000000 -2.000000 0.000000 -98.720703 -42.236324 -35.292969 -10.544217 -1.795856 0.002362 1.756760 -3.283567 0.058713 -2.000000 2.000000 0.000000 111.376953 36.796875 26.914063 37.313366 1.740830 -0.059879 -1.786088 3.264010 0.057537 -16.103453 6.543416 47.531490 15.013388 -4.024675 -1.263011 -0.388743 -27.876375 0.042091 4.559461 -2.352891 -11.377445 31.519701 3.488625 2.304948 -17.095280 21.764585 0.006085 
